<?xml version="1.0" encoding="utf-8"?>
<!-- Generator: Adobe Illustrator 22.1.0, SVG Export Plug-In . SVG Version: 6.00 Build 0)  -->
<svg version="1.1" xmlns="http://www.w3.org/2000/svg" xmlns:xlink="http://www.w3.org/1999/xlink" x="0px" y="0px"
	 viewBox="0 0 841.9 595.3" style="enable-background:new 0 0 841.9 595.3;" xml:space="preserve">
<style type="text/css">
	.st0{fill:#5EC0E2;}
	.st1{fill:#FFFFFF;}
	.st2{display:none;}
</style>
<g id="Sirkel">
	<circle class="st0" cx="420.5" cy="297.8" r="227.7"/>
</g>
<g id="vt">
	<g>
		<path class="st1" d="M328.6,297.9l-66.8-129.8h45.8l45,90.3l44.8-90.3h43.9l-67.9,129.8H328.6z"/>
	</g>
	<g>
		<path class="st1" d="M450.1,254 M461.9,398.9l0.2-51.2h89.1v-26.9h-89.2v-56.2h-41.6v55.9H286.2v25.3l134.3,0.2v52.9
			c0,14.4,1.4,26.3,6.8,33.9c6.2,8.7,13.6,14.3,18.6,16.7c19.2,9.6,36.5,11.8,65.5,10.5c17-0.8,35.6-6.6,46.7-10.3v-28.9
			c-4.8,2.1-9.9,4.1-16.7,6.4c-37,12.6-64,2.2-64,2.2C477.1,429.2,461.1,424.9,461.9,398.9z"/>
	</g>
</g>
<g id="Layer_3" class="st2">
</g>
</svg>
